<mxfile modified="2024-06-07T12:24:03.545Z" host="Electron" agent="Mozilla/5.0 (Windows NT 10.0; Win64; x64) AppleWebKit/537.36 (KHTML, like Gecko) draw.io/24.2.5 Chrome/120.0.6099.109 Electron/28.1.0 Safari/537.36" etag="TAZM5am1HK44dHUffOZ4" version="24.2.5" type="device">
  <diagram id="Ht1M8jgEwFfnCIfOTk4-" name="Page-1">
    <mxGraphModel dx="1562" dy="1744" grid="1" gridSize="10" guides="1" tooltips="1" connect="1" arrows="1" fold="1" page="1" pageScale="1" pageWidth="1169" pageHeight="827" math="0" shadow="0">
      <root>
        <mxCell id="0" />
        <mxCell id="1" parent="0" />
        <mxCell id="EPB3nVa_VeH3kYoYhAyl-47" style="edgeStyle=orthogonalEdgeStyle;rounded=0;orthogonalLoop=1;jettySize=auto;html=1;" edge="1" parent="1" source="EPB3nVa_VeH3kYoYhAyl-1" target="EPB3nVa_VeH3kYoYhAyl-2">
          <mxGeometry relative="1" as="geometry" />
        </mxCell>
        <mxCell id="EPB3nVa_VeH3kYoYhAyl-48" value="REST" style="edgeLabel;html=1;align=center;verticalAlign=middle;resizable=0;points=[];" vertex="1" connectable="0" parent="EPB3nVa_VeH3kYoYhAyl-47">
          <mxGeometry x="-0.1394" y="1" relative="1" as="geometry">
            <mxPoint as="offset" />
          </mxGeometry>
        </mxCell>
        <mxCell id="EPB3nVa_VeH3kYoYhAyl-1" value="mobile" style="sketch=0;outlineConnect=0;fontColor=#232F3E;gradientColor=none;fillColor=#879196;strokeColor=none;dashed=0;verticalLabelPosition=bottom;verticalAlign=top;align=center;html=1;fontSize=12;fontStyle=0;aspect=fixed;pointerEvents=1;shape=mxgraph.aws4.mobile_client;" vertex="1" parent="1">
          <mxGeometry x="120" y="-539" width="41" height="78" as="geometry" />
        </mxCell>
        <mxCell id="EPB3nVa_VeH3kYoYhAyl-3" value="AWS Cloud" style="points=[[0,0],[0.25,0],[0.5,0],[0.75,0],[1,0],[1,0.25],[1,0.5],[1,0.75],[1,1],[0.75,1],[0.5,1],[0.25,1],[0,1],[0,0.75],[0,0.5],[0,0.25]];outlineConnect=0;gradientColor=none;html=1;whiteSpace=wrap;fontSize=12;fontStyle=0;container=1;pointerEvents=0;collapsible=0;recursiveResize=0;shape=mxgraph.aws4.group;grIcon=mxgraph.aws4.group_aws_cloud_alt;strokeColor=#232F3E;fillColor=none;verticalAlign=top;align=left;spacingLeft=30;fontColor=#232F3E;dashed=0;" vertex="1" parent="1">
          <mxGeometry x="229.5" y="-720" width="730.5" height="420" as="geometry" />
        </mxCell>
        <mxCell id="EPB3nVa_VeH3kYoYhAyl-7" style="edgeStyle=orthogonalEdgeStyle;rounded=0;orthogonalLoop=1;jettySize=auto;html=1;" edge="1" parent="EPB3nVa_VeH3kYoYhAyl-3" source="EPB3nVa_VeH3kYoYhAyl-2" target="EPB3nVa_VeH3kYoYhAyl-4">
          <mxGeometry relative="1" as="geometry">
            <Array as="points">
              <mxPoint x="70.5" y="120" />
            </Array>
          </mxGeometry>
        </mxCell>
        <mxCell id="EPB3nVa_VeH3kYoYhAyl-2" value="Amazon API&lt;br&gt;Gateway&lt;br&gt;" style="outlineConnect=0;fontColor=#232F3E;gradientColor=#945DF2;gradientDirection=north;fillColor=#5A30B5;strokeColor=#ffffff;dashed=0;verticalLabelPosition=bottom;verticalAlign=top;align=center;html=1;fontSize=12;fontStyle=0;aspect=fixed;shape=mxgraph.aws4.resourceIcon;resIcon=mxgraph.aws4.api_gateway;labelBackgroundColor=#ffffff;" vertex="1" parent="EPB3nVa_VeH3kYoYhAyl-3">
          <mxGeometry x="30.5" y="190" width="60" height="60" as="geometry" />
        </mxCell>
        <mxCell id="EPB3nVa_VeH3kYoYhAyl-5" style="edgeStyle=orthogonalEdgeStyle;rounded=0;orthogonalLoop=1;jettySize=auto;html=1;" edge="1" parent="EPB3nVa_VeH3kYoYhAyl-3" source="EPB3nVa_VeH3kYoYhAyl-4" target="EPB3nVa_VeH3kYoYhAyl-2">
          <mxGeometry relative="1" as="geometry">
            <Array as="points">
              <mxPoint x="130.5" y="210" />
            </Array>
          </mxGeometry>
        </mxCell>
        <mxCell id="EPB3nVa_VeH3kYoYhAyl-4" value="Lambda Autorizer" style="outlineConnect=0;fontColor=#232F3E;gradientColor=#F78E04;gradientDirection=north;fillColor=#D05C17;strokeColor=#ffffff;dashed=0;verticalLabelPosition=bottom;verticalAlign=top;align=center;html=1;fontSize=12;fontStyle=0;aspect=fixed;shape=mxgraph.aws4.resourceIcon;resIcon=mxgraph.aws4.lambda;labelBackgroundColor=#ffffff;spacingTop=3;shadow=0;opacity=60;" vertex="1" parent="EPB3nVa_VeH3kYoYhAyl-3">
          <mxGeometry x="90.5" y="80" width="60" height="60" as="geometry" />
        </mxCell>
        <mxCell id="EPB3nVa_VeH3kYoYhAyl-31" style="edgeStyle=orthogonalEdgeStyle;rounded=0;orthogonalLoop=1;jettySize=auto;html=1;" edge="1" parent="EPB3nVa_VeH3kYoYhAyl-3" source="EPB3nVa_VeH3kYoYhAyl-14" target="EPB3nVa_VeH3kYoYhAyl-10">
          <mxGeometry relative="1" as="geometry" />
        </mxCell>
        <mxCell id="EPB3nVa_VeH3kYoYhAyl-14" value="Load Balancer" style="sketch=0;points=[[0,0,0],[0.25,0,0],[0.5,0,0],[0.75,0,0],[1,0,0],[0,1,0],[0.25,1,0],[0.5,1,0],[0.75,1,0],[1,1,0],[0,0.25,0],[0,0.5,0],[0,0.75,0],[1,0.25,0],[1,0.5,0],[1,0.75,0]];outlineConnect=0;fontColor=#232F3E;fillColor=#ED7100;strokeColor=#ffffff;dashed=0;verticalLabelPosition=bottom;verticalAlign=top;align=center;html=1;fontSize=12;fontStyle=0;aspect=fixed;shape=mxgraph.aws4.resourceIcon;resIcon=mxgraph.aws4.elastic_load_balancing;" vertex="1" parent="EPB3nVa_VeH3kYoYhAyl-3">
          <mxGeometry x="195.5" y="190" width="60" height="60" as="geometry" />
        </mxCell>
        <mxCell id="EPB3nVa_VeH3kYoYhAyl-15" style="edgeStyle=orthogonalEdgeStyle;rounded=0;orthogonalLoop=1;jettySize=auto;html=1;entryX=0;entryY=0.5;entryDx=0;entryDy=0;entryPerimeter=0;" edge="1" parent="EPB3nVa_VeH3kYoYhAyl-3" source="EPB3nVa_VeH3kYoYhAyl-2" target="EPB3nVa_VeH3kYoYhAyl-14">
          <mxGeometry relative="1" as="geometry" />
        </mxCell>
        <mxCell id="EPB3nVa_VeH3kYoYhAyl-18" value="" style="group" vertex="1" connectable="0" parent="EPB3nVa_VeH3kYoYhAyl-3">
          <mxGeometry x="301.5" y="77" width="399" height="310" as="geometry" />
        </mxCell>
        <mxCell id="EPB3nVa_VeH3kYoYhAyl-16" value="ECS Cluster" style="points=[[0,0],[0.25,0],[0.5,0],[0.75,0],[1,0],[1,0.25],[1,0.5],[1,0.75],[1,1],[0.75,1],[0.5,1],[0.25,1],[0,1],[0,0.75],[0,0.5],[0,0.25]];outlineConnect=0;gradientColor=none;html=1;whiteSpace=wrap;fontSize=12;fontStyle=0;container=0;pointerEvents=0;collapsible=0;recursiveResize=0;shape=mxgraph.aws4.group;grIcon=mxgraph.aws4.group_ec2_instance_contents;strokeColor=#D86613;fillColor=none;verticalAlign=top;align=left;spacingLeft=30;fontColor=#D86613;dashed=0;" vertex="1" parent="EPB3nVa_VeH3kYoYhAyl-18">
          <mxGeometry width="280" height="300" as="geometry" />
        </mxCell>
        <mxCell id="EPB3nVa_VeH3kYoYhAyl-17" value="" style="sketch=0;points=[[0,0,0],[0.25,0,0],[0.5,0,0],[0.75,0,0],[1,0,0],[0,1,0],[0.25,1,0],[0.5,1,0],[0.75,1,0],[1,1,0],[0,0.25,0],[0,0.5,0],[0,0.75,0],[1,0.25,0],[1,0.5,0],[1,0.75,0]];outlineConnect=0;fontColor=#232F3E;fillColor=#ED7100;strokeColor=#ffffff;dashed=0;verticalLabelPosition=bottom;verticalAlign=top;align=center;html=1;fontSize=12;fontStyle=0;aspect=fixed;shape=mxgraph.aws4.resourceIcon;resIcon=mxgraph.aws4.ecs;" vertex="1" parent="EPB3nVa_VeH3kYoYhAyl-18">
          <mxGeometry width="25" height="25" as="geometry" />
        </mxCell>
        <mxCell id="EPB3nVa_VeH3kYoYhAyl-36" style="edgeStyle=orthogonalEdgeStyle;rounded=0;orthogonalLoop=1;jettySize=auto;html=1;" edge="1" parent="EPB3nVa_VeH3kYoYhAyl-18" source="EPB3nVa_VeH3kYoYhAyl-10">
          <mxGeometry relative="1" as="geometry">
            <mxPoint x="169" y="188" as="targetPoint" />
            <Array as="points">
              <mxPoint x="129" y="143" />
              <mxPoint x="129" y="188" />
            </Array>
          </mxGeometry>
        </mxCell>
        <mxCell id="EPB3nVa_VeH3kYoYhAyl-10" value="ECS" style="sketch=0;points=[[0,0,0],[0.25,0,0],[0.5,0,0],[0.75,0,0],[1,0,0],[0,1,0],[0.25,1,0],[0.5,1,0],[0.75,1,0],[1,1,0],[0,0.25,0],[0,0.5,0],[0,0.75,0],[1,0.25,0],[1,0.5,0],[1,0.75,0]];outlineConnect=0;fontColor=#232F3E;fillColor=#ED7100;strokeColor=#ffffff;dashed=0;verticalLabelPosition=bottom;verticalAlign=top;align=center;html=1;fontSize=12;fontStyle=0;aspect=fixed;shape=mxgraph.aws4.resourceIcon;resIcon=mxgraph.aws4.ecs;" vertex="1" parent="EPB3nVa_VeH3kYoYhAyl-18">
          <mxGeometry x="39" y="113" width="60" height="60" as="geometry" />
        </mxCell>
        <mxCell id="EPB3nVa_VeH3kYoYhAyl-9" value="ec2 / spot / fargate" style="sketch=0;points=[[0,0,0],[0.25,0,0],[0.5,0,0],[0.75,0,0],[1,0,0],[0,1,0],[0.25,1,0],[0.5,1,0],[0.75,1,0],[1,1,0],[0,0.25,0],[0,0.5,0],[0,0.75,0],[1,0.25,0],[1,0.5,0],[1,0.75,0]];outlineConnect=0;fontColor=#232F3E;fillColor=#ED7100;strokeColor=#ffffff;dashed=0;verticalLabelPosition=bottom;verticalAlign=top;align=center;html=1;fontSize=12;fontStyle=0;aspect=fixed;shape=mxgraph.aws4.resourceIcon;resIcon=mxgraph.aws4.fargate;" vertex="1" parent="EPB3nVa_VeH3kYoYhAyl-18">
          <mxGeometry x="169" y="68" width="60" height="60" as="geometry" />
        </mxCell>
        <mxCell id="EPB3nVa_VeH3kYoYhAyl-35" style="edgeStyle=orthogonalEdgeStyle;rounded=0;orthogonalLoop=1;jettySize=auto;html=1;entryX=0;entryY=0.5;entryDx=0;entryDy=0;entryPerimeter=0;" edge="1" parent="EPB3nVa_VeH3kYoYhAyl-18" source="EPB3nVa_VeH3kYoYhAyl-10" target="EPB3nVa_VeH3kYoYhAyl-9">
          <mxGeometry relative="1" as="geometry">
            <Array as="points">
              <mxPoint x="129" y="143" />
              <mxPoint x="129" y="98" />
            </Array>
          </mxGeometry>
        </mxCell>
        <mxCell id="EPB3nVa_VeH3kYoYhAyl-33" value="Postgres RDS" style="sketch=0;points=[[0,0,0],[0.25,0,0],[0.5,0,0],[0.75,0,0],[1,0,0],[0,1,0],[0.25,1,0],[0.5,1,0],[0.75,1,0],[1,1,0],[0,0.25,0],[0,0.5,0],[0,0.75,0],[1,0.25,0],[1,0.5,0],[1,0.75,0]];outlineConnect=0;fontColor=#000000;fillColor=#0050ef;strokeColor=#FFFFFF;dashed=0;verticalLabelPosition=bottom;verticalAlign=top;align=center;html=1;fontSize=12;fontStyle=0;aspect=fixed;shape=mxgraph.aws4.resourceIcon;resIcon=mxgraph.aws4.rds;" vertex="1" parent="EPB3nVa_VeH3kYoYhAyl-18">
          <mxGeometry x="329" y="68" width="60" height="60" as="geometry" />
        </mxCell>
        <mxCell id="EPB3nVa_VeH3kYoYhAyl-34" style="edgeStyle=orthogonalEdgeStyle;rounded=0;orthogonalLoop=1;jettySize=auto;html=1;" edge="1" parent="EPB3nVa_VeH3kYoYhAyl-18" source="EPB3nVa_VeH3kYoYhAyl-9" target="EPB3nVa_VeH3kYoYhAyl-33">
          <mxGeometry relative="1" as="geometry" />
        </mxCell>
        <mxCell id="EPB3nVa_VeH3kYoYhAyl-39" value="ec2" style="sketch=0;points=[[0,0,0],[0.25,0,0],[0.5,0,0],[0.75,0,0],[1,0,0],[0,1,0],[0.25,1,0],[0.5,1,0],[0.75,1,0],[1,1,0],[0,0.25,0],[0,0.5,0],[0,0.75,0],[1,0.25,0],[1,0.5,0],[1,0.75,0]];outlineConnect=0;fontColor=#232F3E;fillColor=#ED7100;strokeColor=#ffffff;dashed=0;verticalLabelPosition=bottom;verticalAlign=top;align=center;html=1;fontSize=12;fontStyle=0;aspect=fixed;shape=mxgraph.aws4.resourceIcon;resIcon=mxgraph.aws4.ec2;" vertex="1" parent="EPB3nVa_VeH3kYoYhAyl-18">
          <mxGeometry x="169.5" y="163" width="60" height="60" as="geometry" />
        </mxCell>
        <mxCell id="EPB3nVa_VeH3kYoYhAyl-49" value="Melhoria" style="text;html=1;align=center;verticalAlign=middle;whiteSpace=wrap;rounded=0;fillColor=#647687;strokeColor=#314354;fontColor=#ffffff;glass=0;shadow=0;" vertex="1" parent="EPB3nVa_VeH3kYoYhAyl-3">
          <mxGeometry x="130.5" y="60" width="79.5" height="30" as="geometry" />
        </mxCell>
        <mxCell id="EPB3nVa_VeH3kYoYhAyl-45" value="IAM Roles" style="outlineConnect=0;fontColor=#232F3E;gradientColor=none;fillColor=#C7131F;strokeColor=none;dashed=0;verticalLabelPosition=bottom;verticalAlign=top;align=center;html=1;fontSize=12;fontStyle=0;aspect=fixed;pointerEvents=1;shape=mxgraph.aws4.role;labelBackgroundColor=#ffffff;" vertex="1" parent="EPB3nVa_VeH3kYoYhAyl-3">
          <mxGeometry x="100.5" y="330" width="70.9" height="40" as="geometry" />
        </mxCell>
        <mxCell id="EPB3nVa_VeH3kYoYhAyl-41" value="api users" style="sketch=0;points=[[0,0,0],[0.25,0,0],[0.5,0,0],[0.75,0,0],[1,0,0],[0,1,0],[0.25,1,0],[0.5,1,0],[0.75,1,0],[1,1,0],[0,0.25,0],[0,0.5,0],[0,0.75,0],[1,0.25,0],[1,0.5,0],[1,0.75,0]];outlineConnect=0;fontColor=#232F3E;fillColor=#ED7100;strokeColor=#ffffff;dashed=0;verticalLabelPosition=bottom;verticalAlign=top;align=center;html=1;fontSize=12;fontStyle=0;aspect=fixed;shape=mxgraph.aws4.resourceIcon;resIcon=mxgraph.aws4.ec2;" vertex="1" parent="1">
          <mxGeometry x="1010" y="-480" width="60" height="60" as="geometry" />
        </mxCell>
        <mxCell id="EPB3nVa_VeH3kYoYhAyl-42" style="edgeStyle=orthogonalEdgeStyle;rounded=0;orthogonalLoop=1;jettySize=auto;html=1;" edge="1" parent="1" source="EPB3nVa_VeH3kYoYhAyl-39" target="EPB3nVa_VeH3kYoYhAyl-41">
          <mxGeometry relative="1" as="geometry" />
        </mxCell>
        <mxCell id="EPB3nVa_VeH3kYoYhAyl-51" value="REST" style="edgeLabel;html=1;align=center;verticalAlign=middle;resizable=0;points=[];" vertex="1" connectable="0" parent="EPB3nVa_VeH3kYoYhAyl-42">
          <mxGeometry x="0.0188" y="1" relative="1" as="geometry">
            <mxPoint as="offset" />
          </mxGeometry>
        </mxCell>
        <mxCell id="EPB3nVa_VeH3kYoYhAyl-43" value="Amazon&lt;br&gt;CloudWatch&lt;br&gt;" style="outlineConnect=0;fontColor=#232F3E;gradientColor=#F34482;gradientDirection=north;fillColor=#BC1356;strokeColor=#ffffff;dashed=0;verticalLabelPosition=bottom;verticalAlign=top;align=center;html=1;fontSize=12;fontStyle=0;aspect=fixed;shape=mxgraph.aws4.resourceIcon;resIcon=mxgraph.aws4.cloudwatch;labelBackgroundColor=#ffffff;" vertex="1" parent="1">
          <mxGeometry x="260" y="-230" width="60" height="60" as="geometry" />
        </mxCell>
        <mxCell id="EPB3nVa_VeH3kYoYhAyl-44" value="Amazon&lt;br&gt;ElasticSearch&lt;br&gt;Service&lt;br&gt;" style="outlineConnect=0;fontColor=#232F3E;gradientColor=#945DF2;gradientDirection=north;fillColor=#5A30B5;strokeColor=#ffffff;dashed=0;verticalLabelPosition=bottom;verticalAlign=top;align=center;html=1;fontSize=12;fontStyle=0;aspect=fixed;shape=mxgraph.aws4.resourceIcon;resIcon=mxgraph.aws4.elasticsearch_service;labelBackgroundColor=#ffffff;" vertex="1" parent="1">
          <mxGeometry x="339.5" y="-230" width="60" height="60" as="geometry" />
        </mxCell>
        <mxCell id="EPB3nVa_VeH3kYoYhAyl-46" value="Amazon ElastiCache for Redis" style="sketch=0;outlineConnect=0;fontColor=#232F3E;gradientColor=none;strokeColor=#ffffff;fillColor=#232F3E;dashed=0;verticalLabelPosition=middle;verticalAlign=bottom;align=center;html=1;whiteSpace=wrap;fontSize=10;fontStyle=1;spacing=3;shape=mxgraph.aws4.productIcon;prIcon=mxgraph.aws4.elasticache_for_redis;" vertex="1" parent="1">
          <mxGeometry x="420" y="-230" width="55.55" height="100" as="geometry" />
        </mxCell>
        <mxCell id="EPB3nVa_VeH3kYoYhAyl-50" value="Melhorias" style="text;html=1;align=center;verticalAlign=middle;whiteSpace=wrap;rounded=0;fillColor=#647687;strokeColor=#314354;fontColor=#ffffff;" vertex="1" parent="1">
          <mxGeometry x="260" y="-270" width="79.5" height="30" as="geometry" />
        </mxCell>
      </root>
    </mxGraphModel>
  </diagram>
</mxfile>
